<svg xmlns="http://www.w3.org/2000/svg" xml:space="preserve" width="28" height="28"><path style="fill:#ff0002;fill-opacity:1;stroke-width:1.07281;stroke-miterlimit:10" d="M7.706 25.41c.431-2.5.785-4.629.785-4.732 0-.308-.116-.75-.283-1.081-.15-.3-.292-.443-3.592-3.652-1.889-1.837-3.412-3.347-3.384-3.355.028-.009.33-.054.672-.1 3.001-.411 8.457-1.226 8.684-1.297.536-.167 1.012-.506 1.296-.923.082-.12 1.039-2.015 2.127-4.21 1.088-2.197 1.98-3.997 1.985-4.001.004-.005.718 1.427 1.587 3.181 2.644 5.341 2.47 5.008 2.796 5.33.31.304.706.54 1.076.642.13.036.948.168 1.818.294l4.471.645c1.588.23 2.934.427 2.99.44.091.02-.274.387-3.238 3.246-3.569 3.442-3.68 3.56-3.86 4.126-.19.6-.206.472.656 5.448.433 2.5.775 4.54.758 4.533-.016-.007-1.797-.937-3.957-2.067-2.16-1.13-4.04-2.1-4.176-2.153a2.653 2.653 0 0 0-1.836 0c-.135.054-2.013 1.022-4.173 2.153-2.16 1.13-3.941 2.06-3.958 2.067-.016.007.324-2.033.756-4.533z" transform="matrix(.87503 0 0 .90323 0 -.45)"/><path style="fill:#000002;fill-opacity:1" d="M31.881 12.056a2.303 2.303 0 0 0-1.844-1.511l-8.326-1.238-3.619-7.514A2.318 2.318 0 0 0 16 .499c-.896 0-1.711.505-2.092 1.294l-3.619 7.514-8.327 1.238A2.3 2.3 0 0 0 .12 12.056a2.207 2.207 0 0 0 .537 2.285l6.102 6.092-1.415 8.451a2.224 2.224 0 0 0 .948 2.203 2.351 2.351 0 0 0 2.449.131L16 27.31l7.26 3.908a2.367 2.367 0 0 0 2.449-.131 2.225 2.225 0 0 0 .947-2.203l-1.416-8.451 6.104-6.092c.603-.603.81-1.485.537-2.285zm-8.293 6.806a2.216 2.216 0 0 0-.627 1.934l1.416 8.451-7.26-3.906a2.361 2.361 0 0 0-2.235 0l-7.26 3.906 1.416-8.451a2.212 2.212 0 0 0-.626-1.934L2.31 12.77l8.326-1.24a2.306 2.306 0 0 0 1.743-1.268L16 2.75l3.62 7.513a2.31 2.31 0 0 0 1.742 1.268l8.328 1.24z" transform="matrix(.87503 0 0 .90323 0 -.45)"/></svg>