<svg xmlns="http://www.w3.org/2000/svg" xml:space="preserve" width="28" height="28"><path style="fill:#ff0002;fill-opacity:1;stroke-width:.953744;stroke-miterlimit:10" d="M6.742 22.5c.378-2.257.687-4.18.687-4.274 0-.278-.1-.677-.247-.976-.132-.27-.255-.4-3.143-3.299-1.653-1.659-2.986-3.022-2.961-3.03.024-.008.289-.049.587-.09 2.627-.372 7.4-1.108 7.6-1.172.469-.15.885-.457 1.134-.834.071-.108.908-1.82 1.86-3.803.952-1.983 1.734-3.61 1.737-3.613-.231 11.485.06 14.789-.039 21.227-.265.005-.53.055-.761.149-.118.048-1.762.922-3.652 1.943-1.89 1.021-3.448 1.862-3.463 1.868-.014.006.284-1.837.661-4.095z"/><path style="fill:#000002;fill-opacity:1;stroke-width:.889015" d="M27.896 10.439a2.031 2.031 0 0 0-1.613-1.365l-7.286-1.118-3.166-6.787A2.023 2.023 0 0 0 14 0c-.784 0-1.497.456-1.83 1.169L9.002 7.956 1.716 9.074a2.029 2.029 0 0 0-1.611 1.365c-.241.723-.059 1.52.47 2.063l5.339 5.503-1.238 7.633c-.126.769.197 1.54.83 1.99a2.013 2.013 0 0 0 2.142.118L14 24.216l6.353 3.53a2.018 2.018 0 0 0 2.143-.118c.632-.45.953-1.221.828-1.99l-1.239-7.633 5.341-5.503a2.045 2.045 0 0 0 .47-2.063zm-7.256 6.147a2.042 2.042 0 0 0-.549 1.747l1.24 7.633-6.354-3.528a2.004 2.004 0 0 0-1.955 0l-6.353 3.528 1.24-7.633a2.039 2.039 0 0 0-.549-1.747l-5.34-5.503 7.286-1.12a2.024 2.024 0 0 0 1.526-1.145L14 2.033l3.168 6.786c.287.613.859 1.042 1.524 1.145l7.287 1.12z"/></svg>